HIERARCHY
ROOT Hips
{
  OFFSET 39.2762 95.4094 -95.5444
  CHANNELS 6 Xposition Yposition Zposition Zrotation Xrotation Yrotation
  JOINT ToSpine
  {
    OFFSET -2.69724 7.43032 -0.144315
    CHANNELS 3 Zrotation Xrotation Yrotation
    JOINT Spine
    {
      OFFSET -0.0310711 10.7595 1.96963
      CHANNELS 3 Zrotation Xrotation Yrotation
      JOINT Spine1
      {
        OFFSET 13.1342 3.43533 0.764692
        CHANNELS 3 Zrotation Xrotation Yrotation
        JOINT Neck
        {
          OFFSET 29.8703 7.82586 -0.130764
          CHANNELS 3 Zrotation Xrotation Yrotation
          JOINT Head
          {
            OFFSET 9.52751 0.295786 -0.907742
            CHANNELS 3 Zrotation Xrotation Yrotation
            End Site
            {
              OFFSET 16.4037 0.713936 2.7358
            }
          }
        }
        JOINT LeftShoulder
        {
          OFFSET 27.5574 4.95586 2.47156
          CHANNELS 3 Zrotation Xrotation Yrotation
          JOINT LeftArm
          {
            OFFSET 1.20734 -0.998971 20.1238
            CHANNELS 3 Zrotation Xrotation Yrotation
            JOINT LeftForeArm
            {
              OFFSET 26.8049 -0.0536703 -0.155908
              CHANNELS 3 Zrotation Xrotation Yrotation
              JOINT LeftHand
              {
                OFFSET 26.6817 0 0.320147
                CHANNELS 3 Zrotation Xrotation Yrotation
                End Site
                {
                  OFFSET 18.6119 0 0.382219
                }
              }
            }
          }
        }
        JOINT RightShoulder
        {
          OFFSET 27.5927 4.71444 -2.65209
          CHANNELS 3 Zrotation Xrotation Yrotation
          JOINT RightArm
          {
            OFFSET 2.83739 -1.17114 -18.7564
            CHANNELS 3 Zrotation Xrotation Yrotation
            JOINT RightForeArm
            {
              OFFSET 28.839 -0.0548439 1.22491
              CHANNELS 3 Zrotation Xrotation Yrotation
              JOINT RightHand
              {
                OFFSET 26.5114 0 -0.101894
                CHANNELS 3 Zrotation Xrotation Yrotation
                End Site
                {
                  OFFSET 18.2168 0 0
                }
              }
            }
          }
        }
      }
    }
  }
  JOINT LeftUpLeg
  {
    OFFSET -4.76168 -1.9167 -10.2353
    CHANNELS 3 Zrotation Xrotation Yrotation
    JOINT LeftLeg
    {
      OFFSET 2.55951 -42.0585 -8.02213
      CHANNELS 3 Zrotation Xrotation Yrotation
      JOINT LeftFoot
      {
        OFFSET 3.16357 -42.5282 -3.95426
        CHANNELS 3 Zrotation Xrotation Yrotation
        JOINT LeftToeBase
        {
          OFFSET 0.346054 -6.02161 12.8035
          CHANNELS 3 Zrotation Xrotation Yrotation
          End Site
          {
            OFFSET 0.134235 -1.35082 5.13018
          }
        }
      }
    }
  }
  JOINT RightUpLeg
  {
    OFFSET -4.94151 -1.41743 10.6446
    CHANNELS 3 Zrotation Xrotation Yrotation
    JOINT RightLeg
    {
      OFFSET -2.56294 -42.0364 -7.94377
      CHANNELS 3 Zrotation Xrotation Yrotation
      JOINT RightFoot
      {
        OFFSET -3.0952 -42.555 -4.02241
        CHANNELS 3 Zrotation Xrotation Yrotation
        JOINT RightToeBase
        {
          OFFSET -0.0828122 -6.13587 12.8035
          CHANNELS 3 Zrotation Xrotation Yrotation
          End Site
          {
            OFFSET -0.131328 -1.35082 5.13018
          }
        }
      }
    }
  }
}
MOTION
Frames:	15
Frame Time:	0.0333333
44.8207 90.5765 -304.132 1.3477 -65.9731 -85.4764 -70.1915 0 88.8779 90.7171 66.8825 -2.53782 4.9741 15.0749 4.86308 -159.196 18.3913 175.384 -151.078 57.0668 -177.283 -0.300919 -16.1378 -33.2122 -68.9047 43.6876 -95.6454 11.8456 17.8844 -33.9014 0.420957 0.00057536 0.35866 -1.98988 5.69843 49.2247 -83.9087 -29.1419 75.1029 3.99577 -27.5726 21.816 0.58676 0.000331134 0.0646654 -66.3918 1.25824 88.2736 -3.1963 42.5283 -9.55669 0.343659 -18.0756 -1.53093 8.80343 -18.4612 10.5977 -20.4912 3.23541 83.7597 2.34669 48.0303 -0.489571 -5.34396 -8.75735 1.1135 2.4445 -13.4237 -18.0568 
44.0047 90.3672 -300.21 0.598014 -66.5396 -85.5523 -70.1915 0 88.8779 90.6253 66.7249 -1.43947 5.64777 15.03 4.84692 -158.453 18.1779 175.888 -152.069 56.9618 -176.642 -0.237364 -15.8837 -33.1085 -67.6085 45.2158 -94.6556 10.8573 17.2357 -32.5012 0.420957 0.00057536 0.35866 -2.01082 5.87196 48.5706 -86.3333 -28.8866 74.8362 3.10364 -30.4858 20.6317 0.58676 0.000331134 0.0646654 -64.4347 3.4551 90.0842 -3.98065 49.9424 -8.07463 1.62586 -7.92435 -0.811727 12.6893 -24.4188 11.9453 -22.3321 4.0071 82.6866 2.46064 50.5506 -1.94416 -5.86283 -10.679 1.19368 2.31958 -12.7833 -15.1166 
43.2457 90.5526 -296.201 -0.377284 -67.0184 -86.8296 -70.1915 0 88.8779 91.4129 67.3346 -1.78801 5.0578 15.8668 4.53955 -157.113 18.5849 175.517 -152.088 57.337 -176.968 -0.277684 -15.9992 -33.366 -64.2918 45.7933 -94.9569 8.62946 14.5989 -30.7039 0.420957 0.00057536 0.35866 -1.96835 5.82011 48.1828 -85.5103 -30.2967 75.1539 4.26513 -29.2854 21.6636 0.58676 0.000331134 0.0646654 -61.2097 4.07838 90.8193 -5.26131 57.9162 -5.35034 -1.99686 0.983077 0.261099 11.1252 -22.03 12.1409 -24.8471 4.27859 82.2895 2.74971 52.0668 -1.66073 -7.12084 -13.4639 1.28506 2.37323 -10.7994 -15.6267 
42.4695 91.0486 -292.293 -0.583437 -67.261 -86.6234 -70.1915 0 88.8779 94.958 67.6775 -3.48342 3.91251 16.6818 2.96823 -156.464 18.8355 174.649 -151.543 57.5147 -177.545 -0.229419 -15.8224 -33.2218 -63.3226 46.4168 -94.2079 8.89145 15.5052 -29.9961 0.420957 0.00057536 0.35866 -2.03134 5.96271 48.3915 -82.7464 -31.6958 77.1823 4.51072 -25.4557 22.5201 0.58676 0.000331134 0.0646654 -55.2946 5.11092 90.6366 -8.34007 67.4115 -1.2504 -0.964651 3.70093 0.352705 6.89107 -15.4711 12.4822 -28.2334 5.33415 82.0078 2.78758 51.426 -0.847805 -6.68023 -16.0211 1.33216 2.50681 -9.77137 -17.1741 
41.8447 91.6383 -288.495 -3.8669 -66.9904 -90.113 -70.1915 0 88.8779 97.8108 68.8804 -5.08543 2.69837 18.2686 2.06801 -156.473 19.5132 175.52 -153.448 58.4432 -176.053 -0.218159 -15.6407 -33.8103 -65.2676 47.2715 -91.4696 9.9033 17.2715 -30.1245 0.420957 0.00057536 0.35866 -2.13856 6.49469 47.2398 -76.9843 -34.4672 80.9959 6.21044 -19.8751 24.8038 0.58676 0.000331134 0.0646654 -48.5326 5.65385 91.9732 -12.7291 73.7737 3.44923 0.617916 1.13875 -0.0868825 7.38754 -16.2551 12.6147 -31.1677 7.06736 83.3631 2.63034 50.1613 -0.655868 -6.69135 -17.7387 1.36733 2.67109 -6.43343 -17.8589 
41.1629 92.6406 -284.425 -1.92815 -67.1958 -89.5275 -70.1915 0 88.8779 94.1877 69.8619 -3.16152 3.67613 19.1434 2.06391 -156.172 20.0666 175.45 -153.547 59.0752 -175.328 -0.211501 -15.5813 -33.9523 -65.0991 47.9611 -90.5288 9.59194 17.1033 -29.7199 0.420957 0.00057536 0.35866 -2.1019 6.41552 47.0953 -69.0359 -34.5037 87.593 4.80657 -13.5043 25.4446 0.58676 0.000331134 0.0646654 -42.6937 4.38786 92.9602 -14.7898 75.3184 4.28421 0.485268 -0.748321 -0.207792 8.18474 -17.5196 14.3301 -35.5416 6.78024 84.6367 2.26712 47.7999 -1.1984 -7.03622 -19.3668 1.38661 2.64013 -3.62919 -16.9122 
40.5491 93.6778 -280.478 -0.546896 -67.3175 -89.1443 -70.1915 0 88.8779 94.0747 70.7115 -4.53207 2.96916 19.9408 2.58576 -155.055 20.6683 175.353 -154.122 59.7418 -174.907 -0.159727 -15.4193 -33.674 -66.2105 49.3091 -88.3974 9.88987 17.9267 -29.5452 0.420957 0.00057536 0.35866 -2.05766 6.45804 46.233 -67.5822 -35.5087 89.6387 6.97221 -12.897 28.8805 0.58676 0.000331134 0.0646654 -37.3197 3.10148 94.0582 -12.8118 73.3592 1.57064 1.33684 -2.67109 -0.440205 9.17101 -18.9705 15.8544 -40.2618 6.3973 85.3793 1.96489 44.4151 -1.03816 -5.2484 -21.2156 1.52511 2.48078 -0.492941 -15.4087 
40.0793 94.4725 -276.268 -2.38768 -67.3923 -90.9549 -70.1915 0 88.8779 95.4803 71.8182 -5.42937 2.64126 21.2018 2.30626 -154.82 21.4506 176.581 -156.694 60.7559 -172.728 -0.0190565 -14.8575 -33.4373 -67.7014 50.4119 -86.8559 9.75244 18.6566 -28.9142 0.420957 0.00057536 0.35866 -2.08352 6.73752 45.2912 -68.2024 -35.7814 90.8005 8.91084 -14.8573 31.5424 0.58676 0.000331134 0.0646654 -33.142 3.23614 95.5143 -9.11565 68.1201 -2.69169 -0.92704 -5.59267 -0.455167 9.23481 -19.0574 16.1847 -45.4006 7.81324 87.1788 1.80737 40.1643 0.398436 -4.12648 -21.3511 1.59761 3.19154 -0.940332 -20.0708 
39.715 94.9479 -272.001 -2.84673 -67.4224 -92.1315 -70.1915 0 88.8779 97.3104 72.7736 -8.14804 1.17117 22.2001 2.62581 -153.455 21.9639 176.413 -157.27 61.3434 -171.572 0.0327844 -14.6987 -33.0729 -67.3727 51.3803 -85.2801 10.2255 18.6334 -29.537 0.420957 0.00057536 0.35866 -1.99132 6.6483 44.3708 -68.7304 -36.1715 91.5674 9.72372 -14.3483 34.7503 0.58676 0.000331134 0.0646654 -30.2455 3.02448 98.2531 -6.13656 59.8812 -7.35467 0.605265 -4.34064 -0.485645 10.732 -21.0048 19.6891 -49.7718 6.89662 86.155 1.06747 36.7984 -1.25823 -6.63032 -19.2228 1.40056 1.87411 -6.56327 -10.3148 
39.4592 95.1655 -267.635 -3.61303 -66.5349 -93.1878 -70.1915 0 88.8779 95.6123 73.5532 -6.3137 0.736935 23.0079 2.16893 -153.535 22.4694 176.924 -159.03 61.9688 -169.933 0.151765 -14.2128 -32.825 -66.7983 51.9225 -84.2377 10.4468 17.8355 -30.642 0.420957 0.00057536 0.35866 -1.97031 6.84856 43.1897 -68.725 -36.2511 93.1952 10.8189 -14.2794 37.8354 0.58676 0.000331134 0.0646654 -27.2285 2.24185 99.0265 -3.58176 49.6578 -5.61751 0.764454 -6.85329 -0.682331 10.2137 -20.4074 17.3584 -53.4323 6.30028 84.4919 0.410425 33.5134 2.50434 -5.53754 -18.9589 1.43669 1.96213 -6.79314 -11.0961 
39.3712 95.0499 -263.345 -5.26445 -65.7227 -95.0295 -70.1915 0 88.8779 95.5958 74.1718 -5.75869 0.355123 23.8435 1.28785 -154.218 22.5765 176.948 -159.228 62.0888 -170.075 0.196585 -14.0253 -32.7414 -66.6904 52.5097 -83.1875 10.4319 17.6296 -30.8917 0.420957 0.00057536 0.35866 -1.93652 6.96257 42.2358 -67.9817 -35.4039 95.7011 11.2795 -13.7037 40.1505 0.58676 0.000331134 0.0646654 -25.3336 2.01181 99.9682 -2.08259 38.3747 -3.35954 -0.148089 -7.78043 -0.694389 7.59345 -16.5614 12.1596 -56.8308 5.37541 82.4366 0.346975 30.8279 5.16371 -6.34602 -18.1459 1.38636 1.93624 -8.10185 -10.4477 
39.3518 94.7227 -259.121 -8.21669 -64.9876 -98.1582 -70.1915 0 88.8779 95.7562 74.8639 -5.26555 0.700512 24.8842 0.103089 -156.007 22.9771 178.384 -162.093 62.6499 -167.901 0.183598 -13.9852 -33.3572 -69.3999 52.3571 -79.7487 11.7219 18.8627 -32.2601 0.420957 0.00057536 0.35866 -1.95809 7.27883 41.2815 -66.5311 -33.8881 99.3914 12.0237 -14.1364 41.1372 0.58676 0.000331134 0.0646654 -24.3922 1.24128 97.0886 -2.29615 27.4443 -3.09109 -0.109049 -5.66969 -0.526944 8.61985 -18.1687 12.5228 -60.2442 5.00139 81.8716 0.198021 28.278 6.70392 -5.93664 -18.3257 1.40391 1.80895 -8.04406 -9.08765 
39.3279 94.0668 -254.768 -10.6557 -64.8166 -100.697 -70.1915 0 88.8779 98.4656 75.173 -7.84059 0.785854 25.6061 -0.904031 -157.273 22.8319 178.049 -161.777 62.5075 -168.949 0.272006 -13.597 -33.3568 -70.2738 52.324 -78.3647 12.4265 19.5214 -32.9557 0.420957 0.00057536 0.35866 -2.00938 7.83042 39.9544 -66.3614 -33.8807 101.743 12.2674 -13.7152 42.5665 0.58676 0.000331134 0.0646654 -23.3793 0.504973 93.8422 -1.66183 21.4085 -2.93731 -0.0298505 -6.50518 -0.599738 8.67436 -18.2536 11.3876 -63.5611 4.14852 80.8927 0.605651 27.1821 8.10998 -6.1718 -16.8547 1.35895 1.85059 -11.823 -6.99825 
39.3078 93.2248 -250.243 -14.3891 -64.6487 -104.676 -70.1915 0 88.8779 102.13 75.7618 -11.8244 0.405599 26.6728 -1.57951 -157.867 22.6839 177.806 -162.611 62.4174 -168.286 0.347594 -13.2822 -33.2198 -70.0258 52.0439 -78.2652 13.0835 20.5206 -33.0872 0.420957 0.00057536 0.35866 -2.18876 8.56456 39.7322 -69.3255 -34.6729 100.673 15.1407 -15.7622 44.8851 0.58676 0.000331134 0.0646654 -22.3536 0.988925 93.3713 -1.41139 20.8813 -5.05915 1.2533 -5.83518 -0.64642 9.65377 -19.7588 12.6049 -65.7512 3.83215 81.4947 -0.114409 28.8293 10.7587 -7.07354 -15.034 1.31097 2.22359 -17.4996 -8.603 
39.4052 92.4516 -245.093 -17.1258 -64.4996 -107.529 -70.1915 0 88.8779 103.449 76.104 -13.6591 -0.151658 27.2558 -1.85247 -157.524 22.3565 176.257 -161.865 62.038 -169.324 0.493872 -12.6844 -32.7362 -71.642 52.3377 -77.3152 12.9567 21.0624 -32.176 0.420957 0.00057536 0.35866 -2.06098 7.92757 40.2734 -68.1992 -33.0531 102.332 13.7481 -14.4278 44.4957 0.58676 0.000331134 0.0646654 -21.3043 1.85035 94.3689 -1.9573 26.0973 -4.49173 1.87138 -6.02148 -0.70626 8.29672 -17.6583 11.6516 -67.5208 3.43905 83.5965 -0.645447 32.1214 16.0139 1.69991 -13.8602 1.219 2.27609 -19.4299 -12.974 
